<svg xmlns="http://www.w3.org/2000/svg" xmlns:xlink="http://www.w3.org/1999/xlink" viewBox="0 0 1368 758.81">
  <defs>
    <linearGradient id="linear-gradient" x1="1176.68" y1="134.84" x2="33.39" y2="660.79" gradientUnits="userSpaceOnUse">
      <stop offset="0" stop-color="#2aa9ff"/>
      <stop offset="1" stop-color="#3fffec"/>
    </linearGradient>
  </defs>
  <title>Background shape</title>
  <g id="Layer_2" data-name="Layer 2">
    <g id="Layer_1-2" data-name="Layer 1">
      <path id="Background_shape" data-name="Background shape" d="M180.63,686.73c22.51,0,48.56,1.6,70.14,8.44,19.34,6.13,35.5,20.55,56.49,21.67,16.42.87,31.87-6.84,47.16-12.88C417.49,679.07,490.88,681.7,552,711c7.41,3.56,15,7.58,23.19,7.78,8.91.23,17.23-4,25.31-7.79,67.11-31.16,147.77-31.6,215.22-1.19,9.08,4.1,18.47,8.83,28.4,8.11,7.93-.57,15.13-4.57,22.25-8.1,52.17-25.92,114.57-30.5,170-12.49,22.47,7.31,44.69,18.31,68.29,17.17,17.65-.85,34.14-8.44,50.85-14.18A243.88,243.88,0,0,1,1234.11,687c47.05-.18,92.45,13.32,131.89,36.92V384s48.74-249.67-335-242C731,148,683,0,683,0H0V758.81A261.49,261.49,0,0,1,180.63,686.73Z" style="fill: url(#linear-gradient)"/>
    </g>
  </g>
</svg>
